<svg width="6" height="9" viewBox="0 0 6 9" fill="none" xmlns="http://www.w3.org/2000/svg">
<path d="M4.99422 0C5.25935 0 5.51872 0.0930766 5.70316 0.258546C6.09508 0.610169 6.10085 1.17897 5.70892 1.53059C5.70892 1.53059 5.70892 1.53059 5.70316 1.53576L2.38904 4.49353L5.57635 7.46681C5.96252 7.81843 5.96252 8.38206 5.57635 8.73368C5.18442 9.08531 4.55042 9.09048 4.15849 8.73885C4.15849 8.73885 4.15849 8.73885 4.15273 8.73368L0.285302 5.13989C-0.0951006 4.78827 -0.0951006 4.22981 0.285302 3.88336L4.29105 0.289572C4.46973 0.11376 4.72333 0.0103418 4.99422 0Z" fill="black"/>
</svg>
