<svg width="166" height="168" viewBox="0 0 166 168" fill="none" xmlns="http://www.w3.org/2000/svg">
<path d="M82.905 0C82.6651 0 82.4252 0 82.1853 0C79.3949 0.0252869 77.1538 2.30743 77.179 5.10164C77.2043 7.8832 79.4581 10.1148 82.2295 10.1148C82.2421 10.1148 82.2548 10.1148 82.2674 10.1148C82.4505 10.1148 82.6399 10.1148 82.8229 10.1148H82.8293C82.8293 10.1148 82.8482 10.1148 82.8608 10.1148H82.8735C82.8735 10.1148 82.8987 10.1148 82.9113 10.1148C85.7017 10.1148 87.9618 7.85159 87.9618 5.05738C87.9618 2.26318 85.7017 0 82.9113 0H82.905ZM55.8091 4.78555C55.2346 4.78555 54.6475 4.8867 54.073 5.09532C53.8458 5.1775 53.6248 5.25968 53.3975 5.34818C50.7839 6.32805 49.4645 9.24869 50.4493 11.8596C51.2132 13.8888 53.1324 15.1405 55.1778 15.1405C55.7713 15.1405 56.371 15.0331 56.9518 14.8181C57.0213 14.7929 57.0907 14.7676 57.1601 14.7423C57.1601 14.7423 57.1728 14.736 57.1791 14.736C57.1854 14.736 57.1917 14.736 57.2043 14.7296C57.318 14.6854 57.4316 14.6475 57.5452 14.6032C60.1589 13.6423 61.5036 10.7406 60.544 8.1171C59.7927 6.06886 57.8609 4.79819 55.8028 4.79819L55.8091 4.78555ZM32.0213 18.6365C30.8723 18.6365 29.7107 19.0284 28.7638 19.8313C28.5807 19.983 28.3976 20.141 28.2208 20.2991C26.1059 22.1197 25.866 25.3122 27.6842 27.43C28.6817 28.5932 30.0958 29.1874 31.5163 29.1874C32.6842 29.1874 33.8521 28.7828 34.8054 27.9673C34.8812 27.9041 34.9632 27.8346 35.039 27.765C35.1211 27.6955 35.2031 27.626 35.2852 27.5564C37.4127 25.7547 37.6842 22.5623 35.8786 20.4318C34.8812 19.2497 33.4544 18.6428 32.0213 18.6428V18.6365ZM14.4267 39.8016C12.6716 39.8016 10.9734 40.7183 10.0391 42.3493C9.91912 42.5579 9.79917 42.7665 9.68554 42.9751C8.32191 45.409 9.1868 48.494 11.6237 49.8595C12.4065 50.2957 13.2524 50.5043 14.0921 50.5043C15.8598 50.5043 17.5769 49.575 18.505 47.9187C18.5428 47.8492 18.587 47.7733 18.6249 47.7038C18.6249 47.6975 18.6312 47.6848 18.6375 47.6785C18.7007 47.571 18.7575 47.4699 18.8206 47.3624C20.1969 44.9412 19.3572 41.8562 16.9393 40.4717C16.1502 40.0166 15.2853 39.8016 14.4393 39.8016H14.4267ZM5.15272 65.7523C2.7348 65.7523 0.594655 67.5034 0.17799 69.9689C0.140111 70.2028 0.102232 70.4431 0.0643538 70.677C-0.377564 73.4332 1.50374 76.0251 4.25626 76.4677C4.52772 76.5119 4.79288 76.5309 5.05803 76.5309C7.49489 76.5309 9.64135 74.7608 10.0391 72.27C10.0517 72.1879 10.0643 72.1057 10.077 72.0172C10.077 72.0108 10.077 72.0045 10.077 71.9982C10.077 71.9982 10.077 71.9919 10.077 71.9856C10.077 71.9729 10.077 71.9666 10.077 71.9539C10.077 71.9539 10.0833 71.9034 10.0896 71.8781C10.0896 71.8654 10.0896 71.8591 10.0896 71.8465C10.0896 71.8465 10.0896 71.8465 10.0896 71.8402V71.8275C10.1022 71.7706 10.1085 71.7074 10.1211 71.6505C10.582 68.8942 8.73226 66.2897 5.97974 65.8219C5.69565 65.7713 5.41156 65.7523 5.13378 65.7523H5.15272ZM5.36737 93.2961C5.06434 93.2961 4.755 93.3214 4.45197 93.3783C1.70576 93.884 -0.1061 96.5202 0.398949 99.2638C0.443141 99.4977 0.487332 99.738 0.531524 99.9719C0.998694 102.393 3.11359 104.075 5.48732 104.075C5.80297 104.075 6.12494 104.043 6.44691 103.98C9.18049 103.455 10.9734 100.806 10.4557 98.069C10.4431 98.0121 10.4368 97.9615 10.4242 97.911C10.4052 97.8035 10.38 97.6897 10.361 97.5822C10.361 97.5759 10.361 97.5633 10.361 97.557C10.3547 97.519 10.3484 97.4748 10.3421 97.4368C9.89387 95.003 7.77266 93.2961 5.37999 93.2961H5.36737ZM15.0012 119.108C14.1237 119.108 13.2398 119.335 12.4317 119.816C10.0328 121.238 9.23731 124.342 10.6578 126.744C10.7777 126.953 10.904 127.155 11.0239 127.364C11.9709 128.938 13.6439 129.81 15.3547 129.81C16.2449 129.81 17.1413 129.577 17.962 129.083C20.3484 127.642 21.1186 124.538 19.6855 122.148C19.5845 121.978 19.4835 121.807 19.3825 121.636C19.3762 121.624 19.3635 121.605 19.3572 121.592C18.4166 119.999 16.731 119.108 15.0075 119.108H15.0012ZM32.9241 140.014C31.4658 140.014 30.0138 140.646 29.0163 141.866C27.2486 144.028 27.558 147.214 29.717 148.984C29.9001 149.136 30.0895 149.288 30.2726 149.439C31.2069 150.192 32.3244 150.558 33.4418 150.558C34.919 150.558 36.3774 149.914 37.3748 148.674C39.1236 146.5 38.789 143.32 36.6236 141.569C36.5415 141.499 36.4594 141.436 36.3711 141.367C36.3647 141.367 36.3584 141.354 36.3458 141.348C36.3458 141.348 36.3395 141.348 36.3332 141.341C36.3332 141.341 36.3206 141.335 36.3142 141.329C36.3016 141.322 36.2953 141.316 36.2827 141.303C36.2259 141.259 36.1754 141.215 36.1185 141.171C35.1779 140.399 34.0415 140.02 32.9178 140.02L32.9241 140.014ZM56.9076 153.511C54.818 153.511 52.8672 154.819 52.1412 156.899C51.2195 159.535 52.6084 162.418 55.2473 163.341C55.4745 163.417 55.7018 163.499 55.9291 163.575C56.4657 163.758 57.0149 163.847 57.5516 163.847C59.6538 163.847 61.6172 162.519 62.3306 160.414C63.227 157.771 61.8129 154.895 59.174 153.997C59.1425 153.985 59.1172 153.978 59.0856 153.966C59.0793 153.966 59.0793 153.966 59.073 153.966C59.073 153.966 59.0667 153.966 59.0604 153.966C58.9278 153.922 58.7889 153.871 58.6563 153.827C58.6563 153.827 58.6564 153.827 58.65 153.827C58.6437 153.827 58.6374 153.827 58.6311 153.82C58.6122 153.82 58.5995 153.808 58.5806 153.801C58.0314 153.612 57.4695 153.517 56.9139 153.517L56.9076 153.511ZM84.7485 157.885C84.7106 157.885 84.6727 157.885 84.6411 157.885C84.6159 157.885 84.5906 157.885 84.5654 157.885C84.4012 157.885 84.2371 157.892 84.0729 157.892C84.0477 157.892 84.0224 157.892 83.9909 157.892C81.2068 157.936 78.9783 160.231 79.0225 163.018C79.0603 165.787 81.3141 168 84.0729 168C84.0982 168 84.1235 168 84.1487 168C84.3886 168 84.6285 167.994 84.8621 167.987C87.6525 167.924 89.8621 165.61 89.7989 162.816C89.7358 160.066 87.4883 157.873 84.7548 157.873L84.7485 157.885ZM111.724 152.468C111.112 152.468 110.487 152.581 109.881 152.815C109.856 152.828 109.83 152.834 109.805 152.847C109.805 152.847 109.805 152.847 109.799 152.847C109.793 152.847 109.786 152.847 109.774 152.853H109.761C109.761 152.853 109.755 152.853 109.748 152.853C109.736 152.853 109.717 152.866 109.704 152.872C109.673 152.885 109.635 152.897 109.603 152.91C109.603 152.91 109.603 152.91 109.597 152.91C109.591 152.91 109.584 152.91 109.578 152.916C109.572 152.916 109.559 152.923 109.546 152.929C109.458 152.961 109.363 152.999 109.281 153.03C106.687 154.035 105.386 156.95 106.383 159.554C107.154 161.571 109.067 162.804 111.099 162.804C111.699 162.804 112.312 162.696 112.905 162.468C113.126 162.38 113.353 162.298 113.574 162.209C116.169 161.185 117.45 158.252 116.428 155.654C115.645 153.662 113.738 152.442 111.724 152.442V152.468ZM135.178 138.067C133.991 138.067 132.798 138.484 131.838 139.331C131.756 139.407 131.674 139.476 131.592 139.546C131.585 139.552 131.579 139.559 131.566 139.565C131.566 139.565 131.566 139.565 131.56 139.565C131.554 139.571 131.541 139.577 131.535 139.584C131.535 139.584 131.529 139.584 131.522 139.59C131.522 139.59 131.516 139.596 131.51 139.603C131.51 139.603 131.503 139.609 131.497 139.615C131.497 139.615 131.497 139.615 131.484 139.622C131.478 139.628 131.465 139.634 131.459 139.641C131.459 139.641 131.453 139.641 131.447 139.653C131.447 139.653 131.44 139.66 131.434 139.666C131.434 139.666 131.428 139.672 131.421 139.679C131.421 139.679 131.415 139.685 131.409 139.691C131.402 139.691 131.39 139.704 131.383 139.71C131.383 139.71 131.383 139.71 131.377 139.717C131.371 139.717 131.364 139.729 131.358 139.736C129.256 141.569 129.035 144.768 130.866 146.873C131.863 148.023 133.265 148.611 134.679 148.611C135.853 148.611 137.04 148.2 137.993 147.366C138.176 147.208 138.353 147.05 138.53 146.892C140.619 145.039 140.809 141.841 138.959 139.755C137.962 138.629 136.573 138.054 135.178 138.054V138.067ZM152.292 116.497C150.5 116.497 148.763 117.458 147.848 119.146C147.791 119.247 147.734 119.348 147.684 119.455C147.684 119.462 147.678 119.474 147.671 119.481C147.671 119.481 147.671 119.493 147.665 119.5C147.665 119.5 147.665 119.5 147.665 119.506C147.64 119.55 147.614 119.595 147.589 119.645C147.589 119.645 147.589 119.645 147.589 119.651C147.589 119.651 147.589 119.664 147.583 119.67C147.583 119.683 147.57 119.689 147.564 119.702C146.213 122.148 147.103 125.221 149.54 126.574C150.316 127.004 151.15 127.206 151.977 127.206C153.757 127.206 155.481 126.264 156.402 124.595C156.516 124.386 156.63 124.178 156.749 123.963C158.075 121.504 157.166 118.438 154.71 117.11C153.946 116.693 153.119 116.497 152.311 116.497H152.292ZM160.935 90.3375C158.467 90.3375 156.314 92.1456 155.941 94.6616C155.935 94.7185 155.922 94.7754 155.916 94.826C155.916 94.8323 155.916 94.8386 155.916 94.8449C155.904 94.9334 155.891 95.0219 155.878 95.1104C155.878 95.1104 155.878 95.1168 155.878 95.1231C155.878 95.1231 155.878 95.1294 155.878 95.1357C155.872 95.1926 155.859 95.2432 155.853 95.3001C155.436 98.0564 157.33 100.629 160.083 101.053C160.342 101.091 160.6 101.11 160.853 101.11C163.303 101.11 165.455 99.3207 165.84 96.8173C165.878 96.5834 165.91 96.3432 165.948 96.1093C166.345 93.3467 164.433 90.7801 161.674 90.3818C161.428 90.3439 161.188 90.3312 160.948 90.3312L160.935 90.3375ZM160.108 62.8064C159.767 62.8064 159.42 62.838 159.073 62.9139C156.345 63.4828 154.59 66.1569 155.152 68.8879C155.165 68.9448 155.171 68.9954 155.184 69.046C155.184 69.046 155.184 69.0523 155.184 69.0586C155.184 69.0649 155.184 69.0712 155.184 69.0839C155.184 69.0839 155.184 69.0902 155.184 69.0965C155.184 69.1092 155.184 69.1218 155.19 69.1281C155.19 69.1345 155.19 69.1534 155.196 69.1597C155.222 69.2799 155.247 69.3936 155.266 69.5138C155.746 71.916 157.854 73.5723 160.209 73.5723C160.537 73.5723 160.866 73.5407 161.2 73.4712C163.934 72.9275 165.714 70.266 165.165 67.5224C165.121 67.2885 165.07 67.0546 165.02 66.8144C164.521 64.4248 162.425 62.7874 160.083 62.7874L160.108 62.8064ZM149.849 37.2287C148.934 37.2287 148.012 37.4752 147.179 37.9936C144.811 39.4729 144.092 42.5895 145.569 44.9602C145.582 44.9728 145.588 44.9918 145.601 45.0044C145.601 45.0044 145.619 45.0297 145.626 45.0423V45.0487C145.626 45.0487 145.632 45.0613 145.638 45.0676C145.638 45.0676 145.638 45.0739 145.645 45.0803C145.645 45.0803 145.651 45.0929 145.657 45.0992C145.657 45.1055 145.67 45.1182 145.67 45.1245C145.67 45.1245 145.67 45.1308 145.676 45.1372C145.676 45.1372 145.676 45.1435 145.683 45.1498C145.683 45.1498 145.689 45.1624 145.695 45.1688C145.695 45.1688 145.695 45.1751 145.702 45.1814C145.708 45.1941 145.714 45.2004 145.72 45.213C145.72 45.213 145.72 45.213 145.72 45.2193C145.72 45.2257 145.727 45.232 145.733 45.2383C145.733 45.2383 145.733 45.2383 145.733 45.2446C145.746 45.2636 145.758 45.2826 145.771 45.3015C145.771 45.3015 145.777 45.3142 145.784 45.3142C145.784 45.3142 145.784 45.3205 145.79 45.3268C145.79 45.3395 145.803 45.3458 145.809 45.3521C145.834 45.3964 145.866 45.4469 145.897 45.4912C146.851 47.0463 148.511 47.8998 150.203 47.8998C151.099 47.8998 152.008 47.6595 152.835 47.1538C155.215 45.6935 155.96 42.5832 154.508 40.1999C154.382 39.9976 154.256 39.789 154.13 39.5867C153.17 38.0505 151.522 37.2034 149.837 37.2034L149.849 37.2287ZM131.465 16.7463C129.963 16.7463 128.479 17.41 127.482 18.687C125.765 20.887 126.15 24.0605 128.34 25.7863C128.467 25.8812 128.587 25.9823 128.707 26.0771C128.707 26.0771 128.713 26.0835 128.719 26.0898C128.757 26.1214 128.795 26.153 128.833 26.1846C129.761 26.9243 130.872 27.2846 131.977 27.2846C133.46 27.2846 134.931 26.6335 135.929 25.3754C137.665 23.1881 137.305 20.0083 135.127 18.2698C134.938 18.1181 134.755 17.9727 134.565 17.8273C133.644 17.1003 132.545 16.7526 131.453 16.7526L131.465 16.7463ZM107.166 3.812C105.032 3.812 103.05 5.1775 102.362 7.31424C101.503 9.96937 102.962 12.8205 105.613 13.6802C105.657 13.6929 105.695 13.7055 105.74 13.7182H105.752C105.752 13.7182 105.758 13.7182 105.765 13.7182C105.79 13.7245 105.809 13.7308 105.834 13.7434C105.834 13.7434 105.859 13.7498 105.866 13.7561C105.872 13.7561 105.891 13.7624 105.897 13.7687H105.91H105.923C106.017 13.8003 106.106 13.8319 106.2 13.8572C106.731 14.0342 107.267 14.1164 107.798 14.1164C109.913 14.1164 111.882 12.7762 112.589 10.6521C113.467 8.00331 112.04 5.13957 109.389 4.25453C109.161 4.17866 108.934 4.1028 108.707 4.03326C108.189 3.8689 107.665 3.78672 107.154 3.78672L107.166 3.812Z" fill="#6802C1"/>
<path d="M83.0239 25C82.772 25 82.5201 25 82.2681 25C79.4845 25.0378 77.2613 27.3171 77.2928 30.1C77.3306 32.8579 79.5789 35.0742 82.3311 35.0742C82.35 35.0742 82.3752 35.0742 82.3941 35.0742C82.4949 35.0742 82.6019 35.0742 82.7027 35.0742C82.7153 35.0742 82.7216 35.0742 82.7342 35.0742C82.7342 35.0742 82.7342 35.0742 82.7405 35.0742C82.7468 35.0742 82.7531 35.0742 82.7594 35.0742C82.7657 35.0742 82.772 35.0742 82.7783 35.0742C82.7783 35.0742 82.7783 35.0742 82.7846 35.0742C82.8223 35.0742 82.8601 35.0742 82.8916 35.0742H82.9042C82.9168 35.0742 82.9231 35.0742 82.9294 35.0742C82.9546 35.0742 82.9798 35.0742 83.005 35.0742C85.7886 35.0742 88.0433 32.8201 88.0433 30.0371C88.0433 27.2541 85.7886 25 83.005 25H83.0239ZM55.836 32.329C54.9732 32.329 54.0978 32.5493 53.298 33.0153C53.0775 33.1412 52.8634 33.2734 52.643 33.3993C50.2561 34.8349 49.4878 37.9264 50.9237 40.3127C51.8684 41.8868 53.5373 42.7557 55.244 42.7557C56.1257 42.7557 57.0137 42.5228 57.8261 42.0379C57.8513 42.0253 57.8765 42.0065 57.9017 41.9939C57.908 41.9939 57.9206 41.9813 57.9269 41.9813C57.9269 41.9813 57.9332 41.9813 57.9395 41.975C57.9395 41.975 57.9521 41.975 57.9521 41.9687C57.9584 41.9687 57.9647 41.9624 57.971 41.9561C57.971 41.9561 57.9773 41.9561 57.9836 41.9561C57.9899 41.9561 57.9962 41.9498 58.0088 41.9435C58.0088 41.9435 58.0088 41.9435 58.0151 41.9435C58.0214 41.9435 58.034 41.9309 58.0403 41.9309C58.0466 41.9309 58.0592 41.9183 58.0655 41.912C58.0718 41.912 58.0843 41.8994 58.0906 41.8931C58.1032 41.8931 58.1095 41.8805 58.1221 41.8742C58.1977 41.8302 58.2796 41.7798 58.3552 41.7357C60.7609 40.3316 61.5671 37.2464 60.1689 34.8475C59.2306 33.2419 57.5427 32.3478 55.8108 32.3478L55.836 32.329ZM36.0607 52.3388C34.3099 52.3388 32.6032 53.258 31.6774 54.8888C31.5515 55.1092 31.4255 55.3295 31.3058 55.5499C29.9644 57.9866 30.8461 61.0529 33.2834 62.3941C34.0517 62.8222 34.8893 63.0237 35.7143 63.0237C37.4903 63.0237 39.2097 62.0855 40.1291 60.417C40.1291 60.417 40.1291 60.4044 40.1354 60.3981V60.3918C40.1354 60.3855 40.1417 60.3792 40.148 60.3729C40.148 60.3729 40.148 60.3603 40.1543 60.3603C40.1543 60.3603 40.1543 60.3477 40.1606 60.3414C40.1606 60.3414 40.1669 60.3288 40.1732 60.3226C40.1732 60.3226 40.1732 60.3163 40.1795 60.31C40.1795 60.3037 40.1858 60.2974 40.1921 60.2911C40.1921 60.2911 40.1921 60.2848 40.1984 60.2785C40.1984 60.2722 40.2047 60.2659 40.211 60.2596C40.211 60.2596 40.211 60.2533 40.2173 60.247C40.2173 60.2407 40.2236 60.2344 40.2299 60.2281C40.2299 60.2281 40.2299 60.2218 40.2362 60.2155C40.2362 60.2092 40.2425 60.2029 40.2488 60.1966C40.2488 60.1966 40.2488 60.1903 40.2551 60.184C40.2551 60.1777 40.2614 60.1714 40.2677 60.1651C40.2677 60.1651 40.2677 60.1526 40.274 60.1526C40.274 60.1463 40.274 60.14 40.2866 60.1337C40.2866 60.1337 40.2866 60.1211 40.2929 60.1148C40.2929 60.1148 40.2929 60.1022 40.2992 60.1022C40.3118 60.077 40.3244 60.0581 40.337 60.0329C40.337 60.0329 40.337 60.0203 40.3433 60.0203V60.0077C40.3433 60.0077 40.3559 59.9951 40.3622 59.9888C40.3622 59.9888 40.3622 59.9826 40.3622 59.9763C40.3622 59.97 40.3685 59.9574 40.3748 59.9511C40.3874 59.9322 40.4 59.907 40.4126 59.8881C41.7855 57.4703 40.9416 54.3977 38.5232 53.0188C37.736 52.5717 36.8795 52.3577 36.0355 52.3577L36.0607 52.3388ZM29.0386 79.5957C29.0386 79.5957 29.0008 79.5957 28.9819 79.5957C26.1983 79.6272 23.9688 81.9065 24.0003 84.6895C24.0003 84.9413 24.0066 85.1932 24.0129 85.445C24.0759 88.1839 26.3242 90.3625 29.0449 90.3625C29.089 90.3625 29.1268 90.3625 29.1709 90.3625C31.9545 90.2932 34.1525 87.9887 34.0895 85.2057C34.0895 85.0609 34.0832 84.9224 34.0832 84.7776C34.0832 84.7776 34.0832 84.7587 34.0832 84.7461C34.0832 84.7398 34.0832 84.7272 34.0832 84.7209C34.0832 84.6706 34.0832 84.6202 34.0832 84.5761C34.0517 81.812 31.8034 79.5957 29.0449 79.5957H29.0386ZM36.6779 106.683C35.7962 106.683 34.9019 106.916 34.0958 107.4C31.7089 108.83 30.9343 111.921 32.3639 114.308C32.4961 114.522 32.6284 114.742 32.7607 114.956C33.7116 116.499 35.3617 117.349 37.0558 117.349C37.9564 117.349 38.8696 117.109 39.6946 116.599C42.0626 115.139 42.7994 112.035 41.3383 109.667C41.3383 109.667 41.332 109.655 41.3257 109.648C41.3257 109.648 41.3194 109.636 41.3131 109.629C41.3131 109.623 41.3006 109.61 41.2943 109.604C41.2943 109.604 41.2943 109.604 41.2943 109.598C41.2943 109.592 41.2817 109.579 41.2817 109.573C41.2817 109.573 41.2817 109.566 41.2754 109.56C41.2754 109.554 41.2691 109.547 41.2628 109.541C41.2628 109.541 41.2628 109.529 41.2565 109.529C41.2565 109.529 41.2502 109.516 41.2439 109.51C41.2439 109.503 41.2376 109.497 41.2313 109.491C41.2313 109.491 41.2313 109.484 41.225 109.478C41.225 109.472 41.2124 109.459 41.2124 109.453C41.1494 109.346 41.0864 109.245 41.0234 109.138C40.0788 107.564 38.4098 106.689 36.6968 106.689L36.6779 106.683ZM56.9255 126.233C55.1495 126.233 53.4302 127.171 52.5107 128.833C51.163 131.27 52.0447 134.33 54.482 135.677C54.7024 135.797 54.9228 135.923 55.1495 136.043C55.9053 136.452 56.724 136.641 57.5238 136.641C59.3187 136.641 61.0569 135.677 61.9701 133.984C63.2864 131.534 62.3669 128.481 59.917 127.165C59.8918 127.152 59.8666 127.139 59.8414 127.127C59.8289 127.127 59.8226 127.114 59.81 127.108C59.8037 127.108 59.7974 127.102 59.7911 127.095C59.7911 127.095 59.7848 127.095 59.7785 127.089C59.7722 127.089 59.7596 127.077 59.7533 127.077C59.621 127.007 59.4951 126.938 59.3628 126.862C58.5882 126.434 57.7506 126.233 56.9255 126.233ZM84.9573 132.913C84.9006 132.913 84.844 132.913 84.7873 132.913C84.655 132.913 84.5165 132.92 84.3842 132.926C84.3842 132.926 84.3779 132.926 84.3716 132.926C84.3653 132.926 84.359 132.926 84.3527 132.926C84.3401 132.926 84.3338 132.926 84.3212 132.926C84.3212 132.926 84.3212 132.926 84.3149 132.926C84.2583 132.926 84.2016 132.926 84.1449 132.926C81.3612 132.989 79.157 135.293 79.22 138.076C79.2829 140.821 81.525 143 84.252 143C84.2897 143 84.3275 143 84.3653 143C84.6172 143 84.8692 142.987 85.1211 142.981C87.9047 142.88 90.0775 140.551 89.9767 137.768C89.8822 135.048 87.6465 132.907 84.9447 132.907L84.9573 132.913ZM111.849 124.608C110.93 124.608 109.998 124.86 109.166 125.389C109.141 125.402 109.122 125.421 109.097 125.433C109.091 125.433 109.084 125.446 109.072 125.446C109.072 125.446 109.066 125.446 109.059 125.452C109.059 125.452 109.059 125.452 109.053 125.452C109.003 125.484 108.958 125.515 108.908 125.54C108.902 125.54 108.895 125.553 108.883 125.553C108.883 125.553 108.883 125.553 108.87 125.553C108.864 125.553 108.858 125.559 108.851 125.565C108.851 125.565 108.839 125.565 108.839 125.572C108.839 125.572 108.826 125.578 108.82 125.584C108.82 125.584 108.807 125.591 108.807 125.597C108.807 125.597 108.795 125.603 108.788 125.609C108.788 125.609 108.776 125.616 108.77 125.622C108.77 125.622 108.757 125.628 108.751 125.635C108.751 125.635 108.738 125.635 108.738 125.647C108.738 125.647 108.725 125.654 108.719 125.66C108.719 125.66 108.713 125.66 108.707 125.666C108.7 125.666 108.694 125.679 108.681 125.679C108.662 125.691 108.644 125.698 108.631 125.71C106.263 127.165 105.52 130.269 106.981 132.643C107.932 134.191 109.588 135.041 111.276 135.041C112.177 135.041 113.09 134.802 113.909 134.292C114.123 134.16 114.337 134.028 114.551 133.889C116.9 132.403 117.599 129.287 116.113 126.938C115.156 125.421 113.518 124.596 111.849 124.596V124.608ZM130.913 103.9C129.093 103.9 127.342 104.888 126.441 106.607C126.416 106.657 126.385 106.714 126.359 106.764C126.359 106.764 126.359 106.777 126.353 106.783C126.353 106.783 126.353 106.796 126.347 106.796C126.347 106.802 126.341 106.809 126.334 106.815C126.334 106.815 126.334 106.827 126.328 106.827C126.328 106.834 126.328 106.84 126.322 106.846C126.322 106.846 126.315 106.859 126.309 106.865C126.309 106.865 126.309 106.878 126.303 106.878C126.303 106.884 126.296 106.89 126.29 106.897C126.29 106.897 126.29 106.903 126.284 106.909C126.284 106.916 126.278 106.922 126.271 106.928C126.271 106.928 126.271 106.934 126.265 106.941C126.265 106.947 126.259 106.953 126.252 106.966C126.252 106.966 126.252 106.972 126.252 106.979C126.252 106.985 126.246 106.991 126.24 107.004C126.24 107.004 126.24 107.01 126.24 107.016C126.24 107.023 126.233 107.029 126.227 107.042C126.227 107.042 126.227 107.048 126.227 107.054C126.227 107.06 126.221 107.067 126.215 107.073C126.215 107.073 126.215 107.086 126.208 107.086C126.208 107.092 126.202 107.098 126.196 107.104C126.196 107.104 126.189 107.117 126.189 107.123C126.189 107.123 126.189 107.136 126.183 107.136C126.183 107.142 126.171 107.155 126.171 107.161C124.854 109.61 125.767 112.664 128.217 113.986C128.979 114.396 129.792 114.591 130.598 114.591C132.393 114.591 134.131 113.628 135.038 111.94C135.158 111.72 135.277 111.493 135.391 111.266C136.675 108.798 135.718 105.757 133.256 104.473C132.512 104.082 131.713 103.9 130.932 103.9H130.913ZM136.946 76.4097C136.864 76.4097 136.789 76.4097 136.707 76.4097C133.929 76.542 131.788 78.8905 131.908 81.6672C131.908 81.7365 131.908 81.7994 131.914 81.8624C131.914 81.9379 131.914 82.0072 131.92 82.0828C131.92 82.1583 131.92 82.2339 131.927 82.3031C132.021 85.0232 134.257 87.1639 136.959 87.1639C137.015 87.1639 137.072 87.1639 137.135 87.1639C139.919 87.0695 142.091 84.7398 141.997 81.9568C141.991 81.705 141.978 81.4531 141.966 81.2013C141.84 78.5001 139.61 76.3972 136.94 76.3972L136.946 76.4097ZM128.318 49.6125C127.38 49.6125 126.429 49.8769 125.579 50.4247C123.248 51.9358 122.581 55.0525 124.092 57.3885C124.099 57.401 124.105 57.4136 124.117 57.4262C124.117 57.4262 124.117 57.4262 124.117 57.4325C124.117 57.4388 124.124 57.4451 124.13 57.4514L124.143 57.4766C124.199 57.571 124.262 57.6655 124.319 57.7536C124.319 57.7536 124.325 57.7662 124.332 57.7662C124.332 57.7725 124.338 57.7788 124.344 57.7851C124.344 57.7851 124.344 57.7851 124.344 57.7914C124.369 57.8355 124.401 57.8796 124.426 57.9236C125.383 59.4411 127.021 60.2722 128.69 60.2722C129.609 60.2722 130.541 60.0203 131.373 59.4914C133.728 58.0055 134.427 54.8951 132.947 52.5403C132.815 52.3262 132.676 52.1121 132.538 51.898C131.574 50.4121 129.956 49.6062 128.305 49.6062L128.318 49.6125ZM107.397 30.7989C105.558 30.7989 103.788 31.8064 102.9 33.5567C101.64 36.0375 102.629 39.0661 105.11 40.3253C105.136 40.3379 105.161 40.3505 105.186 40.3631C105.186 40.3631 105.205 40.3757 105.218 40.382C105.218 40.382 105.218 40.382 105.224 40.382C105.23 40.382 105.243 40.3883 105.249 40.3946C105.249 40.3946 105.255 40.3946 105.262 40.3946C105.268 40.3946 105.281 40.4009 105.287 40.4072C105.287 40.4072 105.287 40.4072 105.293 40.4072C105.306 40.4072 105.312 40.4135 105.318 40.4198C105.318 40.4198 105.318 40.4198 105.325 40.4198C105.381 40.4513 105.438 40.4764 105.501 40.5079C105.514 40.5079 105.52 40.5205 105.532 40.5268C105.532 40.5268 105.532 40.5268 105.539 40.5268C105.551 40.5268 105.551 40.5331 105.564 40.5394C105.564 40.5394 105.577 40.5394 105.583 40.5457C105.583 40.5457 105.595 40.5457 105.595 40.552C105.621 40.5646 105.646 40.5772 105.677 40.5961C106.42 40.9864 107.22 41.169 108.007 41.169C109.821 41.169 111.578 40.1868 112.473 38.4679C113.764 36.006 112.813 32.9586 110.344 31.6678C110.117 31.5482 109.897 31.4349 109.67 31.3215C108.94 30.9501 108.165 30.7738 107.397 30.7738V30.7989Z" fill="#B17DF4"/>
</svg>
