<svg width="235" height="46" viewBox="0 0 235 46" fill="none" xmlns="http://www.w3.org/2000/svg">
<g clip-path="url(#clip0_1021_379)">
<path d="M39.7248 18.4099H15.3742C15.1326 17.9072 14.9955 17.3392 14.9955 16.7451C14.9955 16.1511 15.1326 15.5831 15.3742 15.0804H39.7248C39.7836 14.1403 39.9011 13.2133 40.0643 12.3059H13.9184C12.8608 13.481 12.221 15.0412 12.221 16.7451C12.221 18.449 12.8608 20.0093 13.9184 21.1844H40.0643C39.9011 20.277 39.7901 19.3499 39.7248 18.4099Z" fill="#010200"/>
<path d="M43.8769 30.6178H7.65119C4.60247 26.8183 2.78107 21.9939 2.78107 16.7452C2.78107 11.4964 4.609 6.67195 7.65119 2.87247H43.8769C44.5297 1.89975 45.2478 0.972726 46.0312 0.0979309H6.35859C2.40895 4.51108 0 10.3474 0 16.7452C0 23.1429 2.40895 28.9792 6.35859 33.3989H46.0247C45.2413 32.5241 44.5232 31.5971 43.8703 30.6244" fill="#010200"/>
<path d="M40.9065 24.5138H11.4768C9.86429 22.3464 8.90463 19.6568 8.90463 16.7451C8.90463 13.8335 9.86429 11.1373 11.4833 8.96991H40.9065C41.2198 8.01678 41.5854 7.08975 42.0032 6.19537H10.1515C7.64466 8.99602 6.11703 12.6911 6.11703 16.7451C6.11703 20.7992 7.63813 24.4943 10.145 27.2884H42.0032C41.5854 26.394 41.2198 25.467 40.9065 24.5138Z" fill="#010200"/>
<path d="M56.4439 12.9914C55.556 12.1753 55.1121 10.8958 55.1121 9.16577V0.0914001H57.4296V8.98298C57.4296 10.0601 57.6842 10.8566 58.1869 11.3723C58.6896 11.8881 59.4926 12.1492 60.5959 12.1492C61.6992 12.1492 62.4826 11.8881 62.9918 11.3723C63.501 10.8566 63.7556 10.0601 63.7556 8.98298V0.0914001H66.0731V9.16577C66.0731 10.8958 65.6357 12.1753 64.7544 12.9914C63.8731 13.8139 62.4891 14.2187 60.5959 14.2187C58.7027 14.2187 57.3317 13.8074 56.4439 12.9914Z" fill="#010200"/>
<path d="M76.5838 4.7722C77.2431 5.45767 77.5695 6.45651 77.5695 7.77523V13.8792H75.3564V8.21915C75.3564 7.3313 75.1736 6.685 74.8146 6.26719C74.4555 5.84937 73.8941 5.64047 73.1433 5.64047C72.3534 5.64047 71.7463 5.86243 71.3285 6.31288C70.9106 6.76334 70.7017 7.42923 70.7017 8.31708V13.8792H68.4625V4.00839H70.7017V5.1182C71.3872 4.20424 72.4122 3.74725 73.7831 3.74725C74.9908 3.74725 75.9244 4.08673 76.5838 4.7722Z" fill="#010200"/>
<path d="M81.9631 4.00839H79.7304V13.8792H81.9631V4.00839Z" fill="#010200"/>
<path d="M83.2622 4.00839H85.6777L88.3739 11.3593L91.057 4.00839H93.4725L89.6273 13.8792H87.127L83.2622 4.00839Z" fill="#010200"/>
<path d="M101.548 11.1373C101.666 10.9088 101.731 10.6803 101.763 10.4518H103.977C103.885 11.4441 103.493 12.2667 102.808 12.913C102.364 13.3047 101.829 13.5985 101.196 13.8074C100.562 14.0163 99.8703 14.1208 99.1195 14.1208C97.964 14.1208 96.9848 13.8923 96.1687 13.4353C95.3592 12.9783 94.7586 12.332 94.3865 11.5029C94.0666 10.7783 93.9034 9.91652 93.9034 8.92421C93.9034 8.415 93.9426 7.95149 94.0209 7.53368C94.0992 7.11587 94.2233 6.7307 94.3865 6.36511C94.7586 5.52949 95.3461 4.88971 96.1295 4.43273C96.9129 3.97574 97.8595 3.74725 98.9628 3.74725C100.066 3.74725 101.006 3.97574 101.79 4.43273C102.573 4.88971 103.147 5.52949 103.513 6.34553C103.715 6.80251 103.853 7.27908 103.924 7.77523C103.996 8.27138 104.035 8.86546 104.035 9.5444H96.1622C96.2014 10.1385 96.3058 10.602 96.4625 10.9349C96.6649 11.3919 96.9848 11.7379 97.4287 11.9795C97.8726 12.221 98.421 12.3451 99.0803 12.3451C99.5112 12.3451 99.9029 12.2928 100.249 12.1818C100.595 12.0774 100.889 11.9207 101.117 11.7183C101.293 11.5551 101.437 11.3658 101.548 11.1373ZM96.4625 6.96572C96.3254 7.25949 96.2405 7.57938 96.2014 7.91232H101.737C101.698 7.55979 101.62 7.22032 101.496 6.88738C101.28 6.44345 100.967 6.11051 100.549 5.88201C100.131 5.65352 99.6157 5.54254 98.9955 5.54254C97.7355 5.54254 96.8868 6.01911 96.456 6.97224" fill="#010200"/>
<path d="M111.673 3.98882V5.96037C111.38 5.89509 111.04 5.86245 110.668 5.86245C109.806 5.86245 109.16 6.12358 108.723 6.63932C108.285 7.15505 108.07 7.90581 108.07 8.88506V13.8792H105.831V4.0084H108.05V5.15739C108.625 4.30218 109.5 3.87131 110.668 3.87131C111.06 3.87131 111.393 3.91048 111.673 3.98882Z" fill="#010200"/>
<path d="M114.376 13.6964C113.71 13.3765 113.234 12.8934 112.933 12.2471C112.718 11.7771 112.614 11.2287 112.614 10.5955H114.787C114.787 10.9741 114.853 11.2875 114.99 11.5421C115.284 12.1884 115.923 12.5083 116.903 12.5083C117.882 12.5083 118.489 12.2537 118.718 11.7444C118.783 11.5682 118.815 11.405 118.815 11.2418C118.815 11.0524 118.783 10.8762 118.718 10.7195C118.626 10.5171 118.476 10.3539 118.267 10.2364C118.058 10.1189 117.804 10.0144 117.503 9.92305C117.203 9.83818 116.772 9.74025 116.224 9.62927C115.473 9.45301 114.833 9.22452 114.311 8.93727C113.789 8.65002 113.41 8.2518 113.182 7.73606C113.044 7.42923 112.979 7.06364 112.979 6.64583C112.979 6.2019 113.057 5.81673 113.221 5.47726C113.475 4.92888 113.919 4.49801 114.552 4.19771C115.186 3.8974 115.943 3.74725 116.831 3.74725C117.719 3.74725 118.489 3.89741 119.116 4.19118C119.742 4.48495 120.193 4.92235 120.474 5.50337C120.65 5.90813 120.735 6.39122 120.735 6.95266H118.62C118.62 6.65889 118.567 6.3847 118.456 6.12356C118.319 5.8559 118.11 5.65352 117.823 5.5099C117.536 5.36628 117.19 5.30099 116.785 5.30099C115.963 5.30099 115.447 5.52296 115.231 5.96688C115.179 6.08439 115.153 6.24107 115.153 6.43039C115.153 6.60666 115.179 6.73723 115.231 6.83515C115.323 7.05058 115.493 7.22685 115.734 7.35742C115.976 7.49451 116.237 7.59896 116.511 7.67078C116.785 7.74259 117.19 7.84051 117.732 7.96455C118.561 8.17998 119.246 8.42806 119.775 8.72183C120.304 9.00908 120.689 9.40731 120.931 9.91652C121.061 10.2233 121.133 10.5955 121.133 11.0263C121.133 11.4964 121.055 11.9338 120.891 12.3385C120.611 12.9391 120.108 13.4026 119.39 13.716C118.672 14.0294 117.83 14.186 116.863 14.186C115.897 14.186 115.042 14.0228 114.376 13.7029" fill="#010200"/>
<path d="M125.096 4.00839H122.863V13.8792H125.096V4.00839Z" fill="#010200"/>
<path d="M136.879 0.0914001V13.8792H134.705V12.6911C134.327 13.1611 133.863 13.5136 133.308 13.7552C132.753 13.9967 132.12 14.1142 131.422 14.1142C130.455 14.1142 129.633 13.8988 128.947 13.4679C128.262 13.0371 127.746 12.4365 127.394 11.6531C127.217 11.2614 127.087 10.837 126.989 10.3735C126.898 9.91 126.845 9.4269 126.845 8.93075C126.845 7.91233 127.028 6.99836 127.387 6.18885C127.733 5.41198 128.255 4.80485 128.941 4.37398C129.626 3.94311 130.449 3.72768 131.415 3.72768C132.101 3.72768 132.721 3.84519 133.269 4.0802C133.818 4.31522 134.281 4.66123 134.66 5.11821V0.0914001H136.873H136.879ZM134.666 8.68267C134.666 7.70342 134.425 6.95267 133.948 6.42387C133.472 5.90161 132.819 5.64047 131.983 5.64047C131.409 5.64047 130.906 5.75798 130.495 5.993C130.077 6.22802 129.763 6.58055 129.548 7.05059C129.333 7.5598 129.228 8.19305 129.228 8.9438C129.228 9.69456 129.339 10.3082 129.548 10.8174C129.763 11.2875 130.077 11.64 130.495 11.8816C130.912 12.1231 131.409 12.2471 131.983 12.2471C132.819 12.2471 133.472 11.9795 133.948 11.4507C134.425 10.9219 134.666 10.1646 134.666 9.18535V8.68267Z" fill="#010200"/>
<path d="M148.023 8.09512V13.8727H145.79V12.7629C145.079 13.6638 143.95 14.1142 142.409 14.1142C141.534 14.1142 140.796 13.9771 140.196 13.6899C139.589 13.4092 139.171 12.9914 138.929 12.443C138.753 12.0513 138.668 11.6074 138.668 11.1112C138.668 10.615 138.746 10.1842 138.91 9.82512C139.243 9.08742 139.817 8.57821 140.62 8.30402C141.423 8.02983 142.468 7.89274 143.741 7.89274H145.797V7.6316C145.797 7.377 145.784 7.16809 145.758 6.99836C145.732 6.82862 145.68 6.65889 145.595 6.48262C145.301 5.83632 144.615 5.51643 143.538 5.51643C142.99 5.51643 142.539 5.58824 142.187 5.73839C141.834 5.88854 141.586 6.12356 141.443 6.44345C141.351 6.685 141.299 6.90696 141.299 7.10934H139.04C139.04 6.5479 139.132 6.06481 139.321 5.67964C139.895 4.39356 141.292 3.74725 143.512 3.74725C144.602 3.74725 145.484 3.91046 146.163 4.23035C146.842 4.55024 147.325 5.05292 147.625 5.73839C147.893 6.33247 148.03 7.11587 148.03 8.09512M145.797 9.62274V9.50523H143.884C143.147 9.50523 142.533 9.56399 142.05 9.68803C141.567 9.80554 141.253 10.0275 141.103 10.3539C141.025 10.5171 140.986 10.7064 140.986 10.9154C140.986 11.1243 141.025 11.3332 141.103 11.5225C141.24 11.8032 141.475 12.0121 141.808 12.1492C142.141 12.2863 142.539 12.3516 142.996 12.3516C143.643 12.3516 144.178 12.2406 144.609 12.0121C145.04 11.7836 145.353 11.4441 145.555 11.0067C145.719 10.615 145.797 10.1581 145.797 9.6358" fill="#010200"/>
<path d="M159.761 0.0914001V13.8792H157.587V12.6911C157.209 13.1611 156.745 13.5136 156.19 13.7552C155.635 13.9967 155.002 14.1142 154.303 14.1142C153.337 14.1142 152.508 13.8988 151.823 13.4679C151.137 13.0371 150.621 12.4365 150.269 11.6531C150.093 11.2614 149.962 10.837 149.864 10.3735C149.773 9.91 149.721 9.4269 149.721 8.93075C149.721 7.91233 149.903 6.99836 150.262 6.18885C150.608 5.41198 151.131 4.80485 151.816 4.37398C152.502 3.94311 153.324 3.72768 154.297 3.72768C154.982 3.72768 155.596 3.84519 156.151 4.0802C156.699 4.31522 157.163 4.66123 157.541 5.11821V0.0914001H159.755H159.761ZM157.548 8.68267C157.548 7.70342 157.306 6.95267 156.83 6.42387C156.353 5.90161 155.7 5.64047 154.865 5.64047C154.29 5.64047 153.788 5.75798 153.376 5.993C152.959 6.22802 152.645 6.58055 152.43 7.05059C152.214 7.5598 152.11 8.19305 152.11 8.9438C152.11 9.69456 152.214 10.3082 152.43 10.8174C152.645 11.2875 152.959 11.64 153.376 11.8816C153.794 12.1231 154.29 12.2471 154.865 12.2471C155.7 12.2471 156.353 11.9795 156.83 11.4507C157.306 10.9219 157.548 10.1646 157.548 9.18535V8.68267Z" fill="#010200"/>
<path d="M57.8736 32.6873C56.8421 32.0671 56.0717 31.1923 55.5756 30.0499C55.0925 28.9923 54.851 27.6931 54.851 26.1655C54.851 24.6379 55.0925 23.3583 55.5756 22.2551C56.0848 21.1257 56.8552 20.2509 57.8801 19.6372C58.905 19.017 60.165 18.7102 61.66 18.7102C62.587 18.7102 63.4357 18.8473 64.2191 19.1149C64.996 19.3826 65.6684 19.7808 66.2298 20.3031C66.7521 20.7731 67.1634 21.3411 67.4571 22.0135C67.7509 22.6859 67.9141 23.4171 67.9402 24.207H65.5052C65.4529 23.1886 65.0939 22.366 64.4345 21.7524C63.7099 21.1061 62.7568 20.7862 61.5751 20.7862C60.6612 20.7862 59.8908 20.9755 59.2576 21.3607C58.6243 21.7458 58.1478 22.2812 57.8279 22.9797C57.6516 23.3975 57.521 23.861 57.4362 24.3768C57.3513 24.8925 57.3056 25.4866 57.3056 26.159C57.3056 26.8314 57.3448 27.4451 57.4231 27.9608C57.5015 28.4765 57.6385 28.9401 57.8279 29.3383C58.1478 30.0499 58.6243 30.5917 59.2576 30.9704C59.8908 31.3425 60.6612 31.5318 61.5751 31.5318C62.1823 31.5318 62.7306 31.4469 63.2268 31.2772C63.7229 31.1075 64.1473 30.8724 64.4933 30.5591C65.1526 29.9715 65.4986 29.1359 65.5378 28.0653H67.9729C67.9598 28.8682 67.8097 29.6059 67.5159 30.2784C67.2287 30.9508 66.8239 31.5253 66.2951 32.0084C65.7337 32.5306 65.0547 32.9289 64.2583 33.1965C63.4683 33.4642 62.6001 33.6013 61.66 33.6013C60.1585 33.6013 58.8855 33.2944 57.854 32.6743" fill="#010200"/>
<path d="M71.8311 32.8114C71.0543 32.3413 70.4732 31.6885 70.1011 30.8594C69.7682 30.1478 69.5984 29.3056 69.5984 28.3395C69.5984 27.3733 69.7682 26.5246 70.1011 25.7999C70.4798 24.9708 71.0543 24.318 71.8311 23.848C72.608 23.3779 73.5611 23.1429 74.6905 23.1429C75.8199 23.1429 76.7796 23.3779 77.563 23.848C78.3464 24.318 78.9274 24.9708 79.3061 25.7999C79.639 26.5507 79.8087 27.3994 79.8087 28.3395C79.8087 29.2795 79.639 30.1021 79.3061 30.879C78.9274 31.7146 78.3529 32.3609 77.563 32.8244C76.7796 33.2879 75.8199 33.5164 74.6905 33.5164C73.5611 33.5164 72.608 33.2814 71.8311 32.8114ZM76.2116 31.2707C76.6229 31.0226 76.9232 30.6766 77.1256 30.2327C77.328 29.7757 77.4259 29.1424 77.4259 28.3395C77.4259 27.5365 77.328 26.8902 77.1256 26.4462C76.9232 25.9893 76.6164 25.6433 76.2116 25.4017C75.8004 25.1602 75.2977 25.0361 74.6905 25.0361C74.0834 25.0361 73.5807 25.1536 73.1825 25.4017C72.7777 25.6433 72.4774 25.9893 72.2751 26.4462C72.0596 26.9163 71.9552 27.5495 71.9552 28.3395C71.9552 29.1294 72.0596 29.7496 72.2751 30.2327C72.4774 30.6766 72.7777 31.0226 73.1825 31.2707C73.5873 31.5188 74.0899 31.6428 74.6905 31.6428C75.2911 31.6428 75.8004 31.5188 76.2116 31.2707Z" fill="#010200"/>
<path d="M89.6795 24.1679C90.3389 24.8533 90.6653 25.8522 90.6653 27.1709V33.2749H88.4522V27.6148C88.4522 26.727 88.2694 26.0807 87.9104 25.6628C87.5513 25.245 86.9899 25.0361 86.2391 25.0361C85.4492 25.0361 84.8421 25.2581 84.4243 25.7085C84.0064 26.159 83.7975 26.8249 83.7975 27.7127V33.2683H81.5583V23.3975H83.7975V24.5073C84.483 23.5934 85.508 23.1364 86.8789 23.1364C88.0866 23.1364 89.0202 23.4759 89.6795 24.1613" fill="#010200"/>
<path d="M94.3081 32.6808C93.8185 32.1781 93.5704 31.362 93.5704 30.2326V25.2385H92.0363V23.404H93.5704V19.3956H95.7835V23.404H98.5842V25.2385H95.7835V29.8279C95.7835 30.422 95.9076 30.8528 96.1557 31.127C96.4037 31.4012 96.7889 31.5383 97.3112 31.5383C97.742 31.5383 98.1403 31.4861 98.4993 31.3751V33.2291C97.8661 33.3662 97.2524 33.4315 96.6453 33.4315C95.5681 33.4315 94.7912 33.1769 94.3016 32.6742" fill="#010200"/>
<path d="M102.873 23.404H100.641V33.2748H102.873V23.404Z" fill="#010200"/>
<path d="M113.345 24.1679C114.004 24.8533 114.33 25.8522 114.33 27.1709V33.2749H112.117V27.6148C112.117 26.727 111.935 26.0807 111.576 25.6628C111.21 25.245 110.655 25.0361 109.904 25.0361C109.114 25.0361 108.507 25.2581 108.089 25.7085C107.672 26.159 107.463 26.8249 107.463 27.7127V33.2683H105.23V23.3975H107.463V24.5073C108.148 23.5934 109.173 23.1364 110.544 23.1364C111.752 23.1364 112.685 23.4759 113.345 24.1613" fill="#010200"/>
<path d="M123.77 30.533C123.888 30.3045 123.953 30.076 123.986 29.8475H126.199C126.108 30.8398 125.716 31.6624 125.03 32.3021C124.586 32.6938 124.051 32.9876 123.418 33.1965C122.785 33.4054 122.093 33.5099 121.342 33.5099C120.186 33.5099 119.207 33.2814 118.391 32.8244C117.582 32.3674 116.988 31.7211 116.609 30.892C116.289 30.1674 116.126 29.3056 116.126 28.3133C116.126 27.8041 116.165 27.3406 116.25 26.9228C116.328 26.505 116.452 26.1133 116.609 25.7542C116.988 24.9251 117.569 24.2788 118.352 23.8219C119.135 23.3649 120.082 23.1364 121.185 23.1364C122.289 23.1364 123.229 23.3649 124.012 23.8219C124.795 24.2788 125.37 24.9186 125.735 25.7347C125.938 26.1916 126.075 26.6682 126.147 27.1644C126.219 27.6605 126.258 28.2546 126.258 28.9335H118.385C118.424 29.5211 118.528 29.9911 118.685 30.3241C118.887 30.781 119.207 31.127 119.651 31.3686C120.095 31.6101 120.643 31.7342 121.303 31.7342C121.734 31.7342 122.119 31.682 122.471 31.571C122.824 31.46 123.111 31.3098 123.34 31.1075C123.516 30.9443 123.659 30.7549 123.77 30.5264M118.685 26.3548C118.548 26.6486 118.463 26.9685 118.424 27.3015H123.96C123.921 26.9489 123.842 26.6095 123.718 26.2765C123.503 25.8326 123.189 25.4996 122.772 25.2711C122.354 25.0427 121.838 24.9251 121.218 24.9251C119.958 24.9251 119.109 25.4017 118.678 26.3548" fill="#010200"/>
<path d="M136.272 24.1679C136.932 24.8533 137.258 25.8522 137.258 27.1709V33.2749H135.045V27.6148C135.045 26.727 134.862 26.0807 134.503 25.6628C134.137 25.245 133.583 25.0361 132.832 25.0361C132.042 25.0361 131.435 25.2581 131.017 25.7085C130.599 26.159 130.39 26.8249 130.39 27.7127V33.2683H128.157V23.3975H130.39V24.5073C131.076 23.5934 132.101 23.1364 133.472 23.1364C134.679 23.1364 135.613 23.4759 136.272 24.1613" fill="#010200"/>
<path d="M140.901 32.6808C140.411 32.1781 140.163 31.362 140.163 30.2326V25.2385H138.629V23.404H140.163V19.3956H142.376V23.404H145.177V25.2385H142.376V29.8279C142.376 30.422 142.5 30.8528 142.748 31.127C142.996 31.4012 143.382 31.5383 143.904 31.5383C144.335 31.5383 144.733 31.4861 145.092 31.3751V33.2291C144.459 33.3662 143.845 33.4315 143.238 33.4315C142.161 33.4315 141.384 33.1769 140.894 32.6742" fill="#010200"/>
<path d="M155.818 27.4908V33.2683H153.585V32.1585C152.874 33.0594 151.744 33.5099 150.204 33.5099C149.329 33.5099 148.591 33.3728 147.991 33.0855C147.383 32.8048 146.966 32.387 146.724 31.8386C146.548 31.4469 146.463 31.0095 146.463 30.5069C146.463 30.0042 146.541 29.5798 146.704 29.2208C147.037 28.4831 147.612 27.9739 148.415 27.6997C149.218 27.4255 150.262 27.2884 151.535 27.2884H153.592V27.0273C153.592 26.7727 153.579 26.5638 153.553 26.394C153.527 26.2243 153.474 26.0545 153.389 25.8783C153.096 25.232 152.41 24.9121 151.333 24.9121C150.785 24.9121 150.334 24.9839 149.982 25.1341C149.629 25.2842 149.381 25.5192 149.237 25.8391C149.146 26.0807 149.1 26.3026 149.1 26.505H146.842C146.842 25.9436 146.933 25.467 147.122 25.0753C147.703 23.7892 149.094 23.1429 151.313 23.1429C152.404 23.1429 153.285 23.3061 153.964 23.626C154.643 23.9459 155.126 24.4486 155.426 25.1341C155.694 25.7281 155.831 26.5115 155.831 27.4908M153.598 29.0184V28.9009H151.686C150.948 28.9009 150.334 28.9596 149.851 29.0837C149.368 29.2012 149.055 29.4232 148.904 29.7496C148.826 29.9128 148.787 30.0956 148.787 30.311C148.787 30.5264 148.826 30.7288 148.904 30.9181C149.042 31.1989 149.277 31.4078 149.61 31.5449C149.942 31.682 150.341 31.7472 150.798 31.7472C151.444 31.7472 151.979 31.6297 152.41 31.4078C152.841 31.1793 153.154 30.8463 153.357 30.4024C153.52 30.0107 153.598 29.5537 153.598 29.0315" fill="#010200"/>
<path d="M159.794 19.3956H157.561V33.2748H159.794V19.3956Z" fill="#010200"/>
<path d="M82.1655 1.31872C82.1655 0.587549 81.5714 0 80.8467 0C80.1221 0 79.528 0.587549 79.528 1.31872C79.528 2.04989 80.1221 2.63744 80.8467 2.63744C81.5714 2.63744 82.1655 2.04989 82.1655 1.31872Z" fill="#010200"/>
<path d="M103.082 20.6295C103.082 19.8983 102.488 19.3108 101.763 19.3108C101.039 19.3108 100.445 19.8983 100.445 20.6295C100.445 21.3607 101.039 21.9482 101.763 21.9482C102.488 21.9482 103.082 21.3607 103.082 20.6295Z" fill="#010200"/>
<path d="M125.298 1.31872C125.298 0.587549 124.704 0 123.979 0C123.255 0 122.661 0.587549 122.661 1.31872C122.661 2.04989 123.255 2.63744 123.979 2.63744C124.704 2.63744 125.298 2.04989 125.298 1.31872Z" fill="#010200"/>
<path d="M184.516 39.8684H182.721L182.395 40.8151H181.703L183.126 36.7805H184.112L185.522 40.8151H184.843L184.516 39.8684ZM184.334 39.3266L183.622 37.2506H183.609L182.904 39.3266H184.334Z" fill="#010200"/>
<path d="M188.753 36.7871H189.432L191.41 39.8423V36.7871H192.057V40.8216H191.365L189.393 37.7794V40.8216H188.753V36.7871ZM190.614 36.4868C190.523 36.4476 190.431 36.3954 190.333 36.3301C190.32 36.317 190.281 36.2909 190.229 36.2517C190.177 36.2126 190.124 36.1799 190.079 36.1603C190.033 36.1408 189.987 36.1342 189.948 36.1342C189.857 36.1342 189.791 36.1669 189.752 36.2387C189.706 36.3105 189.68 36.4084 189.674 36.5325H189.243C189.256 36.2713 189.315 36.0624 189.426 35.9188C189.537 35.7752 189.693 35.6968 189.902 35.6968C190.007 35.6968 190.105 35.7164 190.19 35.7556C190.274 35.7948 190.372 35.847 190.477 35.9188C190.496 35.9319 190.536 35.958 190.588 35.9971C190.64 36.0363 190.686 36.0624 190.725 36.0755C190.764 36.0951 190.81 36.1016 190.855 36.1016C190.94 36.1016 190.999 36.069 191.045 36.0037C191.084 35.9384 191.11 35.8405 191.117 35.7099H191.567C191.554 35.971 191.495 36.1734 191.384 36.3236C191.273 36.4737 191.117 36.5455 190.914 36.5455C190.81 36.5455 190.705 36.5259 190.62 36.4868" fill="#010200"/>
<path d="M196.476 40.7302C196.215 40.6061 196.006 40.4299 195.856 40.2014C195.732 40.0316 195.634 39.8293 195.575 39.5877C195.51 39.3462 195.478 39.085 195.478 38.8043C195.478 38.38 195.549 38.0079 195.686 37.688C195.83 37.3746 196.046 37.1265 196.339 36.9503C196.627 36.774 196.986 36.6891 197.41 36.6891C197.834 36.6891 198.193 36.774 198.487 36.9503C198.774 37.1265 198.99 37.3681 199.133 37.6815C199.27 37.9948 199.342 38.3669 199.342 38.7978C199.342 39.2287 199.27 39.6073 199.127 39.9207C198.983 40.234 198.774 40.4821 198.481 40.6518C198.193 40.8216 197.834 40.913 197.41 40.913C197.051 40.913 196.744 40.8477 196.483 40.7302M198.089 40.1426C198.272 40.0316 198.402 39.8815 198.494 39.6791C198.552 39.5551 198.592 39.4245 198.618 39.2809C198.644 39.1373 198.657 38.9741 198.657 38.7978C198.657 38.6215 198.644 38.4583 198.618 38.3147C198.592 38.1711 198.552 38.0405 198.494 37.9165C198.409 37.7206 198.272 37.5639 198.089 37.453C197.906 37.342 197.684 37.2898 197.41 37.2898C197.136 37.2898 196.914 37.342 196.738 37.453C196.561 37.5639 196.424 37.7206 196.339 37.9165C196.281 38.0405 196.241 38.1711 196.215 38.3147C196.189 38.4583 196.176 38.6215 196.176 38.7978C196.176 38.9741 196.189 39.1373 196.215 39.2809C196.241 39.4245 196.281 39.5551 196.339 39.6791C196.424 39.875 196.561 40.0316 196.738 40.1426C196.914 40.2536 197.142 40.3058 197.41 40.3058C197.678 40.3058 197.906 40.2471 198.089 40.1426Z" fill="#010200"/>
<path d="M203.259 40.7171C203.005 40.5866 202.828 40.4038 202.724 40.1687C202.646 39.9794 202.606 39.764 202.606 39.5159H203.318C203.325 39.6987 203.351 39.8489 203.396 39.9533C203.455 40.0839 203.56 40.1883 203.697 40.2601C203.84 40.3319 204.017 40.3646 204.225 40.3646C204.434 40.3646 204.604 40.3319 204.748 40.2732C204.891 40.2079 204.989 40.123 205.035 40.0055C205.074 39.9207 205.094 39.8293 205.094 39.7444C205.094 39.6595 205.074 39.5812 205.042 39.5029C205.002 39.418 204.937 39.3396 204.846 39.2809C204.754 39.2221 204.65 39.1699 204.532 39.1373C204.415 39.0981 204.258 39.0589 204.056 39.0067L203.893 38.9675C203.599 38.8892 203.357 38.7978 203.174 38.6933C202.992 38.5889 202.855 38.4453 202.776 38.2755C202.717 38.145 202.691 37.9948 202.691 37.8381C202.691 37.6815 202.724 37.5313 202.796 37.3746C202.894 37.1592 203.063 36.9894 203.305 36.8654C203.547 36.7414 203.84 36.6826 204.173 36.6826C204.506 36.6826 204.793 36.7414 205.022 36.8654C205.257 36.9894 205.42 37.1657 205.518 37.3942C205.557 37.4856 205.59 37.5835 205.61 37.6815C205.629 37.7794 205.636 37.8969 205.636 38.0144H204.957C204.957 37.923 204.944 37.8447 204.931 37.7794C204.918 37.7141 204.904 37.6553 204.878 37.6031C204.82 37.4725 204.728 37.3746 204.604 37.3093C204.48 37.2441 204.323 37.2114 204.141 37.2114C203.958 37.2114 203.808 37.2441 203.677 37.3028C203.547 37.3681 203.455 37.453 203.409 37.5574C203.39 37.5901 203.377 37.6227 203.37 37.6553C203.37 37.688 203.364 37.7271 203.364 37.7663C203.364 37.812 203.364 37.8512 203.37 37.8838C203.37 37.9165 203.383 37.9491 203.403 37.9818C203.436 38.0601 203.501 38.1319 203.586 38.1841C203.671 38.2364 203.769 38.2821 203.873 38.3147C203.977 38.3473 204.128 38.3865 204.317 38.4387C204.356 38.4453 204.421 38.4649 204.506 38.4844C204.722 38.5432 204.904 38.6019 205.055 38.6542C205.205 38.7129 205.335 38.7847 205.453 38.8761C205.57 38.9675 205.655 39.0785 205.72 39.2091C205.779 39.3396 205.805 39.4963 205.805 39.6856C205.805 39.875 205.773 40.0382 205.707 40.1883C205.603 40.4233 205.42 40.6061 205.159 40.7302C204.898 40.8542 204.578 40.9195 204.199 40.9195C203.821 40.9195 203.501 40.8542 203.253 40.7236" fill="#010200"/>
<path d="M235 28.9139C235 38.1123 227.558 45.5677 218.359 45.5677C214.586 45.5677 211.1 44.3142 208.312 42.1925L210.297 40.2079C212.569 41.8335 215.35 42.7931 218.359 42.7931C226.017 42.7931 232.225 36.5782 232.225 28.9139C232.225 21.2497 226.017 15.0412 218.359 15.0412H214.318L215.461 10.7782L215.95 8.93726L216.695 6.16272H233.361L232.617 8.93726H218.823L217.935 12.2667H218.359C227.558 12.2667 235 19.7155 235 28.9139Z" fill="#010200"/>
<path d="M212.686 9.08089L210.199 18.3576H218.359C224.176 18.3576 228.896 23.0907 228.896 28.9139C228.896 34.7372 224.176 39.4637 218.359 39.4637C216.277 39.4637 214.331 38.8566 212.693 37.812L214.716 35.7883C215.8 36.3627 217.041 36.6892 218.359 36.6892C222.648 36.6892 226.128 33.2161 226.128 28.9139C226.128 24.6118 222.648 21.1452 218.359 21.1452H208.508V21.1322H206.582L209.357 10.7783L211.485 2.83329L212.223 0.0652771H234.993L234.256 2.83329H214.357L213.47 6.16273L212.686 9.08089Z" fill="#010200"/>
<path d="M201.666 19.239C203.168 17.5873 204.232 16.1184 204.865 14.8454C205.492 13.5724 205.812 12.1231 205.812 10.4975C205.812 8.78058 205.518 7.26601 204.937 5.94729C204.049 3.98227 202.652 2.5134 200.752 1.52762C198.846 0.54837 196.568 0.0587463 193.898 0.0587463C191.228 0.0587463 188.864 0.561427 186.978 1.55373C185.091 2.55257 183.72 4.04755 182.865 6.03869C182.101 7.75564 181.716 9.82512 181.716 12.2471H188.244C188.244 10.713 188.46 9.47259 188.884 8.51945C189.282 7.65771 189.889 6.99182 190.699 6.52178C191.508 6.04522 192.533 5.8102 193.754 5.8102C194.89 5.8102 195.863 6.02563 196.672 6.44997C197.482 6.88084 198.056 7.4945 198.396 8.29096C198.67 8.87198 198.807 9.57704 198.807 10.4061C198.807 11.2352 198.663 11.9664 198.37 12.6845C198.076 13.4026 197.638 14.173 197.038 14.9825C196.444 15.792 195.589 16.7974 194.485 17.9986L181.696 32.3935V33.3597H205.799V27.5626H193.519C196.183 24.9839 198.898 22.2159 201.66 19.239" fill="#010200"/>
</g>
<defs>
<clipPath id="clip0_1021_379">
<rect width="235" height="45.5677" fill="white"/>
</clipPath>
</defs>
</svg>
